<svg width="1213" height="401" viewBox="0 0 1213 401" fill="none" xmlns="http://www.w3.org/2000/svg">
<path fill-rule="evenodd" clip-rule="evenodd" d="M232.169 2.02016C261.649 8.07752 278.555 37.5803 274.388 74.7825C269.28 120.39 253.586 157.978 236.809 186.543C249.864 187.227 262.842 191.974 273.143 202.226C283.572 212.606 289.763 227.132 291.871 244.626C293.39 257.24 292.346 270.661 290.807 283.012C290.027 289.273 289.075 295.572 288.167 301.567L288.128 301.825C287.221 307.81 286.362 313.482 285.671 318.967C284.238 330.339 283.752 339.374 284.724 346.302C285.656 352.945 287.615 355.591 289.424 356.973C292.564 359.37 298.25 361.573 307.23 362.373C315.997 363.154 326.448 362.461 337.544 360.493C353.319 357.695 368.831 352.614 380.805 347.066C368.463 329.303 363.364 307.737 363.313 287.279C363.241 258.8 372.842 229.146 390.427 208.957C413.859 182.054 447.709 174.974 474.356 186.812C487.653 192.719 498.773 203.27 504.97 217.618C511.175 231.983 511.934 248.916 506.814 266.923C495.767 305.775 468.381 333.845 442.418 351.736C475.881 366.223 529.74 367.143 581.177 313.689C577.611 296.332 576.727 279.683 577.005 267.374C577.009 267.175 577.017 266.978 577.027 266.781C577.009 266.449 577 266.115 577 265.779C577 220.566 579.5 188.72 591.35 129.47C599.919 86.6251 614.137 52.8336 631.715 31.1883C649.023 9.87459 674.211 -4.00446 700.309 8.56099C723.882 19.911 729.757 45.8819 729.625 70.4386C729.486 96.1129 722.939 128.504 712.835 164.628C695.742 225.735 645.325 293.438 623.104 321.462C622.49 322.237 621.825 322.948 621.117 323.593C622.032 326.204 623.039 328.768 624.143 331.26C632.948 351.125 646.61 364.214 669.45 364.785C700.703 365.566 728.249 351.47 751.617 331.679C757.415 326.769 762.868 321.58 767.963 316.297C767.183 313.624 766.475 310.905 765.834 308.143C764.59 303.092 763.648 298.042 763.034 293.054C759.779 270.294 760.251 245.499 762.523 221.208C765.866 185.465 773.327 148.799 780.457 117.751C788.567 82.4319 801.305 53.0507 817.058 33.3192C832.371 14.1387 854.786 -0.343872 879.842 8.25352C887.801 10.9846 895.503 15.3962 901.757 22.5038C908.006 29.6064 911.878 38.3436 913.855 48.2665C917.648 67.3019 914.841 92.7431 906.46 126.159C891.535 185.661 856.428 255.794 835.626 288.037C835.469 288.281 835.306 288.52 835.14 288.754C834.791 289.456 834.393 290.145 833.944 290.814C827.92 299.784 819.814 311.304 809.741 323.484C812.509 328.942 815.718 334.194 819.309 339.035C831.248 355.132 845.064 363.768 857.747 364.294C879.075 365.18 897.152 357.766 913.117 341.726C929.598 325.169 944.085 299.069 955.879 262.723C956.087 262.081 956.329 261.458 956.6 260.856C956.709 259.85 956.905 258.84 957.193 257.834C960.804 245.194 969.114 226.907 982.914 211.426C996.918 195.716 1017.71 181.779 1045.5 181.779C1046.4 181.779 1047.28 181.786 1048.15 181.799C1048.43 181.786 1048.71 181.779 1049 181.779C1054.37 181.779 1059.46 182.165 1064.27 182.897C1070.64 183.716 1076.3 184.963 1081.43 186.553C1091.16 189.563 1098.27 193.584 1103.91 196.986C1104.8 197.521 1105.63 198.021 1106.4 198.489L1106.42 198.501L1106.42 198.501C1110.78 201.153 1113.48 202.786 1116.84 204.092C1120.24 205.411 1124.72 206.478 1132.03 206.285C1155.05 205.679 1174.5 189.182 1180.88 181.118C1187.04 173.319 1198.36 171.993 1206.16 178.157C1213.96 184.321 1215.29 195.641 1209.12 203.44C1199.16 216.042 1170.75 241.279 1132.97 242.273C1131.82 242.303 1130.68 242.314 1129.57 242.304C1134.33 258.419 1135.07 274.623 1133.98 286.833C1133.48 304.622 1128.45 330.872 1114.37 353.731C1099.65 377.633 1074.71 398.048 1036.3 399.761C1017.49 400.6 1001.13 396.54 987.746 387.839C974.423 379.174 965.374 366.766 959.654 353.084C958.567 350.483 957.593 347.822 956.726 345.109C951.129 353.255 945.108 360.617 938.633 367.123C916.098 389.763 888.425 401.599 856.253 400.264C828.374 399.106 805.69 381.103 790.394 360.481C788.144 357.447 786.003 354.293 783.981 351.042C781.045 353.791 778.012 356.501 774.883 359.151C747.667 382.201 711.797 401.855 668.55 400.773C630.126 399.813 606.87 377.168 593.857 351.394C525.435 412.013 450.017 402.399 407.702 373.658C390.694 383.477 366.907 391.847 343.831 395.94C330.614 398.284 316.846 399.372 304.036 398.231C291.437 397.109 278.186 393.687 267.576 385.585C255.635 376.467 250.782 363.487 249.073 351.302C247.404 339.402 248.449 326.406 249.954 314.466C250.702 308.53 251.619 302.474 252.503 296.639L252.503 296.638L252.503 296.635L252.573 296.176C253.491 290.115 254.371 284.277 255.083 278.561C256.529 266.959 257.109 257.068 256.129 248.932C254.727 237.289 251.059 231.039 247.747 227.742C244.535 224.546 240.239 222.696 234.548 222.476C222.252 222 205.368 229.533 193.257 243.887C182.424 256.726 172.454 280.981 164.365 309.18C156.493 336.618 151.138 365.064 148.3 383.953C146.824 393.784 137.657 400.556 127.826 399.079C117.995 397.603 111.223 388.436 112.7 378.605C115.176 362.12 119.461 338.729 125.628 314.535C115.441 322.176 104.267 329.97 93.2581 337.361C68.9543 353.678 43.862 369.072 28.1008 378.309C19.5239 383.335 8.49639 380.457 3.47015 371.88C-1.55609 363.303 1.32228 352.275 9.89916 347.249C25.1379 338.319 49.5956 323.314 73.1918 307.472C97.2367 291.329 118.857 275.32 129.568 264.258C130.684 263.106 131.917 262.134 133.229 261.345C134.544 248.873 135.869 235.507 137.238 221.692L137.238 221.691C138.898 204.936 140.624 187.52 142.478 170.235C145.112 145.666 147.993 121.536 151.282 100.651C154.515 80.1125 158.324 61.4642 163.123 48.5211C175.507 15.1216 203.629 -3.8441 232.169 2.02016ZM1059.25 218.549C1055.37 218.069 1050.84 217.779 1045.5 217.779C1030.89 217.779 1019.18 224.842 1009.79 235.382C1000.19 246.151 994.196 259.364 991.807 267.724C991.713 268.054 991.61 268.38 991.499 268.7C991.469 269.915 991.315 271.145 991.028 272.374C985.268 297.028 985.64 321.905 992.869 339.199C996.362 347.554 1001.23 353.665 1007.37 357.66C1013.46 361.618 1022.11 364.358 1034.7 363.797C1059.08 362.71 1074.06 350.542 1083.72 334.852C1093.85 318.406 1097.72 298.428 1098 285.39L1098.02 284.723L1098.08 284.058C1099.27 271.701 1097.55 254.062 1090.09 240.293C1084.44 229.881 1075.38 221.127 1059.25 218.549ZM804.057 270.745C802.13 273.614 800.014 276.702 797.714 279.949C796.11 263.324 796.497 244.552 798.366 224.561C801.486 191.208 808.525 156.374 815.543 125.808C822.933 93.6266 833.945 69.8682 845.192 55.7799C856.879 41.1405 864.714 41.1231 868.158 42.3048C871.552 43.4692 873.464 44.8454 874.729 46.284C875.999 47.7276 877.552 50.2948 878.549 55.3007C880.705 66.1228 879.659 85.0362 871.541 117.4C857.785 172.241 824.573 238.764 805.375 268.521C805 269.103 804.662 269.698 804.362 270.304C804.258 270.449 804.157 270.596 804.057 270.745ZM612.996 275.273C636.439 243.095 666.613 196.229 678.165 154.93C688.061 119.554 693.514 90.9452 693.625 70.2445C693.743 48.4262 688.118 42.6471 684.691 40.997C680.789 39.1179 672.477 38.0994 659.661 53.8823C647.113 69.3336 634.582 96.8748 626.651 136.53C615.254 193.511 613 222.992 613 265.779C613 266.114 612.991 266.446 612.973 266.777C612.998 267.241 613.006 267.711 612.995 268.184C612.945 270.415 612.943 272.788 612.996 275.273ZM174.47 211.099C194.579 188.832 230.823 140.319 238.612 70.7755C241.445 45.4777 230.329 38.3942 224.924 37.2834C218.578 35.9796 204.95 39.2638 196.877 61.0368C193.426 70.3437 190.047 85.9037 186.843 106.25C183.694 126.251 180.888 149.684 178.272 174.073C176.966 186.254 175.704 198.722 174.47 211.099ZM411.873 328.534C403.595 317.801 399.353 303.303 399.312 287.188C399.259 265.885 406.658 245.133 417.573 232.601C431.584 216.516 448.828 214.863 459.741 219.712C465.225 222.148 469.503 226.294 471.921 231.894C474.333 237.476 475.41 245.741 472.186 257.077C462.75 290.263 435.913 314.532 411.873 328.534Z" fill="white"/>
</svg>
